<svg xmlns="http://www.w3.org/2000/svg" viewBox="0 0 367.8 159.42">
  <style>.cls-1{fill:#353535;}.cls-2{fill:#f69e1d;}.cls-3{fill:#d48a28;}</style>
  <title>Adept Black</title>
  <g>
    <g>
      <path class="cls-1" d="M125.61,37.36c-8.27-3.59-15.1-4.67-31.63-4.67H84.81V159.42H94c16.89,0,24.26-1.08,31.63-4.68a34.76,34.76,0,0,0,14.74-13.12c7.19-11.5,11.15-27.68,11.15-45.48C151.5,66.84,141.61,44.38,125.61,37.36Zm-1.43,89.7a19.46,19.46,0,0,1-5.94,8.45c-3,2.16-5.39,2.88-11.32,3.6V53c9.53,1.08,14.38,4.5,17.26,12.23,2.87,7.55,4.67,19.23,4.67,30.91C128.85,107.65,127.05,119.15,124.18,127.06Z"/>
      <polygon class="cls-1" points="183.65 106.3 207.02 106.3 207.02 85.81 183.65 85.81 183.65 53.36 208.28 53.36 208.28 32.69 161.54 32.69 161.54 159.42 209.18 159.42 209.18 138.93 183.65 138.93 183.65 106.3"/>
      <path class="cls-1" d="M264.3,38.1c-8.62-4.67-14.74-5.75-31.45-5.75H221V159.08h22.11V126.9c25.35-2,39.37-19.41,39.37-48.53C282.46,58.42,276.17,44.57,264.3,38.1Zm-21.21,68.67V52.48c5.93.9,8.27,2,10.79,4.32,4.31,4,6.47,11.5,6.47,22.47C260.35,97.6,255.68,105.15,243.09,106.77Z"/>
      <polygon class="cls-1" points="284.16 32.69 284.16 53.36 298.36 53.36 298.36 159.42 320.65 159.42 320.65 53.36 335.03 53.36 335.03 32.69 284.16 32.69"/>
      <path class="cls-1" d="M56,32.69H37.24L0,159.42H22.9l3.6-13.12H49.71l-.14,13.12H71.68V32.69H56Zm-6.29,98.15H30.77L47.06,71l2.65,0Z"/>
      <polygon class="cls-2" points="367.8 0 325.97 14.47 346.46 21.34 367.8 0"/>
      <polygon class="cls-3" points="367.8 0 353.33 41.83 346.46 21.34 367.8 0"/>
    </g>
  </g>
</svg>
