<svg xmlns="http://www.w3.org/2000/svg" viewBox="0 0 368.47 186.23"><defs><style>.cls-1{fill:#fff;}.cls-2{fill:#f69e1d;}.cls-3{fill:#d48a28;}</style></defs><title>Adept White Sub</title><g id="Layer_2" data-name="Layer 2"><g id="Layer_1-2" data-name="Layer 1"><path class="cls-1" d="M126.29,37.36c-8.27-3.59-15.1-4.67-31.64-4.67H85.49V159.42h9.16c16.9,0,24.27-1.08,31.64-4.68A34.82,34.82,0,0,0,141,141.62c7.19-11.5,11.15-27.68,11.15-45.48C152.18,66.84,142.29,44.38,126.29,37.36Zm-1.44,89.7a19.44,19.44,0,0,1-5.93,8.45c-3.06,2.16-5.39,2.88-11.32,3.6V53c9.52,1.08,14.38,4.5,17.25,12.23,2.88,7.55,4.68,19.23,4.68,30.91C129.53,107.65,127.73,119.15,124.85,127.06Z"/><polygon class="cls-1" points="184.33 106.3 207.7 106.3 207.7 85.81 184.33 85.81 184.33 53.36 208.96 53.36 208.96 32.69 162.22 32.69 162.22 159.42 209.85 159.42 209.85 138.93 184.33 138.93 184.33 106.3"/><path class="cls-1" d="M265,38.1c-8.63-4.67-14.74-5.75-31.46-5.75H221.66V159.08h22.11V126.9c25.35-2,39.37-19.41,39.37-48.53C283.14,58.42,276.85,44.57,265,38.1Zm-21.21,68.67V52.48c5.93.9,8.27,2,10.79,4.32,4.31,4,6.47,11.5,6.47,22.47C261,97.6,256.35,105.15,243.77,106.77Z"/><polygon class="cls-1" points="284.84 32.69 284.84 53.36 299.04 53.36 299.04 159.42 321.33 159.42 321.33 53.36 335.71 53.36 335.71 32.69 284.84 32.69"/><path class="cls-1" d="M56.67,32.69H37.92L.68,159.42H23.57l3.61-13.12H50.39l-.14,13.12H72.36V32.69H56.67Zm-6.28,98.15H31.45L47.74,71l2.65,0Z"/><polygon class="cls-2" points="368.47 0 326.65 14.47 347.14 21.34 368.47 0"/><polygon class="cls-3" points="368.47 0 354.01 41.83 347.14 21.34 368.47 0"/><path class="cls-3" d="M9.43,184.22v1.83H0v-15.2H9.42v1.83H2.26v4.82H8v1.76H2.26v5Z"/><path class="cls-3" d="M22.5,182.79a.45.45,0,0,1,.32.14l.89,1a6.29,6.29,0,0,1-2.27,1.7,7.81,7.81,0,0,1-3.22.6,7.55,7.55,0,0,1-3-.57A6.6,6.6,0,0,1,13,184.05a7.39,7.39,0,0,1-1.47-2.46,9.27,9.27,0,0,1-.52-3.14,8.69,8.69,0,0,1,.55-3.15A7.07,7.07,0,0,1,13,172.85a6.91,6.91,0,0,1,2.35-1.6,7.86,7.86,0,0,1,3-.57,7.43,7.43,0,0,1,2.88.53,7.11,7.11,0,0,1,2.19,1.41l-.74,1a.81.81,0,0,1-.18.19.56.56,0,0,1-.3.07.87.87,0,0,1-.47-.2,6,6,0,0,0-.71-.45,5,5,0,0,0-1.08-.45,5.65,5.65,0,0,0-1.61-.2,5.37,5.37,0,0,0-2.07.39,4.69,4.69,0,0,0-1.63,1.15,5.29,5.29,0,0,0-1,1.83,7.46,7.46,0,0,0-.38,2.45,7.22,7.22,0,0,0,.39,2.46,5.35,5.35,0,0,0,1.08,1.83,4.49,4.49,0,0,0,1.62,1.15,5.14,5.14,0,0,0,2,.39,8.32,8.32,0,0,0,1.18-.08,4.49,4.49,0,0,0,1-.24,3.56,3.56,0,0,0,.83-.41,5.72,5.72,0,0,0,.78-.59.83.83,0,0,1,.18-.13A.45.45,0,0,1,22.5,182.79Z"/><path class="cls-3" d="M39.85,178.45a8.7,8.7,0,0,1-.54,3.12A7.39,7.39,0,0,1,37.77,184a6.93,6.93,0,0,1-2.39,1.6,8.58,8.58,0,0,1-6.15,0,6.8,6.8,0,0,1-2.38-1.6,7.39,7.39,0,0,1-1.54-2.46,9.12,9.12,0,0,1,0-6.24,7.19,7.19,0,0,1,1.54-2.46,6.82,6.82,0,0,1,2.38-1.61,8.44,8.44,0,0,1,6.15,0,7,7,0,0,1,2.39,1.61,7.19,7.19,0,0,1,1.54,2.46A8.74,8.74,0,0,1,39.85,178.45Zm-2.31,0a7.44,7.44,0,0,0-.37-2.44,5.14,5.14,0,0,0-1.05-1.83A4.59,4.59,0,0,0,34.47,173a6.06,6.06,0,0,0-4.33,0,4.59,4.59,0,0,0-1.65,1.15A5,5,0,0,0,27.43,176a8.23,8.23,0,0,0,0,4.88,5.05,5.05,0,0,0,1.06,1.82,4.47,4.47,0,0,0,1.65,1.15,6.06,6.06,0,0,0,4.33,0,4.47,4.47,0,0,0,1.65-1.15,5.18,5.18,0,0,0,1.05-1.82A7.4,7.4,0,0,0,37.54,178.45Z"/><path class="cls-3" d="M58.65,170.85v15.2h-2V175.23c0-.16,0-.33,0-.52s0-.37,0-.56l-5.06,9.28a.86.86,0,0,1-.81.52h-.32a.84.84,0,0,1-.81-.52l-5.15-9.31q.06.6.06,1.11v10.82h-2v-15.2h1.67a1.42,1.42,0,0,1,.46.06.64.64,0,0,1,.31.32l5.08,9.1a5.14,5.14,0,0,1,.27.58c.09.21.17.41.25.62a10,10,0,0,1,.52-1.21l5-9.09a.59.59,0,0,1,.3-.32,1.38,1.38,0,0,1,.46-.06Z"/><path class="cls-3" d="M78.39,170.85v15.2h-2V175.23c0-.16,0-.33,0-.52l0-.56-5.06,9.28a.84.84,0,0,1-.81.52h-.32a.84.84,0,0,1-.8-.52l-5.15-9.31q.06.6.06,1.11v10.82h-2v-15.2h1.67a1.38,1.38,0,0,1,.46.06.6.6,0,0,1,.31.32l5.08,9.1c.1.18.19.38.28.58l.24.62a10,10,0,0,1,.52-1.21l5-9.09a.64.64,0,0,1,.31-.32,1.34,1.34,0,0,1,.46-.06Z"/><path class="cls-3" d="M91.57,184.22v1.83H82.14v-15.2h9.42v1.83H84.41v4.82h5.76v1.76H84.41v5Z"/><path class="cls-3" d="M105.75,186.05h-2a1,1,0,0,1-.88-.48l-3.75-5.27a1.1,1.1,0,0,0-.4-.38,1.45,1.45,0,0,0-.63-.11H96.61v6.24H94.35v-15.2h4.39a9.39,9.39,0,0,1,2.53.3A5,5,0,0,1,103,172a3.41,3.41,0,0,1,1,1.34,4.27,4.27,0,0,1,.34,1.75,4.63,4.63,0,0,1-.25,1.5,4,4,0,0,1-.71,1.25,4.7,4.7,0,0,1-1.15,1,5.5,5.5,0,0,1-1.53.61,2.46,2.46,0,0,1,.73.71Zm-7.09-7.88a5.05,5.05,0,0,0,1.53-.21,3.11,3.11,0,0,0,1.11-.6,2.33,2.33,0,0,0,.66-.92,3,3,0,0,0,.23-1.18,2.35,2.35,0,0,0-.87-2,4.19,4.19,0,0,0-2.58-.66H96.61v5.55Z"/><path class="cls-3" d="M118.14,182.79a.45.45,0,0,1,.33.14l.89,1a6.37,6.37,0,0,1-2.27,1.7,7.84,7.84,0,0,1-3.22.6,7.55,7.55,0,0,1-3-.57,6.64,6.64,0,0,1-2.29-1.59,7.21,7.21,0,0,1-1.46-2.46,9,9,0,0,1-.52-3.14,8.9,8.9,0,0,1,.54-3.15,7.38,7.38,0,0,1,1.53-2.45,7,7,0,0,1,2.36-1.6,7.79,7.79,0,0,1,3-.57,7.43,7.43,0,0,1,2.88.53,7.11,7.11,0,0,1,2.19,1.41l-.74,1a.86.86,0,0,1-.19.19.5.5,0,0,1-.29.07.87.87,0,0,1-.47-.2,7,7,0,0,0-.71-.45,5,5,0,0,0-1.08-.45,5.65,5.65,0,0,0-1.61-.2A5.39,5.39,0,0,0,112,173a4.65,4.65,0,0,0-1.62,1.15,5.16,5.16,0,0,0-1.06,1.83,7.46,7.46,0,0,0-.37,2.45,7.22,7.22,0,0,0,.39,2.46,5.35,5.35,0,0,0,1.08,1.83,4.33,4.33,0,0,0,1.62,1.15,5.14,5.14,0,0,0,2,.39,8.42,8.42,0,0,0,1.18-.08,4.65,4.65,0,0,0,1-.24,3.77,3.77,0,0,0,.83-.41,5.1,5.1,0,0,0,.77-.59l.18-.13A.45.45,0,0,1,118.14,182.79Z"/><path class="cls-3" d="M131.06,184.22v1.83h-9.42v-15.2h9.42v1.83H123.9v4.82h5.76v1.76H123.9v5Z"/><path class="cls-3" d="M154,186.05h-1.74a.77.77,0,0,1-.49-.15.94.94,0,0,1-.27-.38L150.17,182h-6.7l-1.35,3.53a.9.9,0,0,1-.27.36.77.77,0,0,1-.49.17h-1.73l6.05-15.2H148Zm-4.46-5.67-2.25-5.89a13.09,13.09,0,0,1-.49-1.52q-.12.45-.24.84c-.08.26-.16.5-.23.7l-2.25,5.87Z"/><path class="cls-3" d="M168.34,170.85v15.2H167.2a1,1,0,0,1-.44-.1,1.37,1.37,0,0,1-.35-.31l-8.58-11.1,0,.56c0,.19,0,.36,0,.52v10.43h-2v-15.2h1.16a1.06,1.06,0,0,1,.45.07,1,1,0,0,1,.33.31l8.6,11.11c0-.2,0-.4-.05-.6s0-.37,0-.54V170.85Z"/><path class="cls-3" d="M185.36,178.45a8.34,8.34,0,0,1-.55,3.1,6.65,6.65,0,0,1-3.92,3.94,8.2,8.2,0,0,1-3.08.56H172.1v-15.2h5.71a8.2,8.2,0,0,1,3.08.55,6.71,6.71,0,0,1,3.92,3.95A8.38,8.38,0,0,1,185.36,178.45Zm-2.31,0a7.38,7.38,0,0,0-.37-2.43,5.09,5.09,0,0,0-1.05-1.82,4.53,4.53,0,0,0-1.65-1.14,5.78,5.78,0,0,0-2.17-.39h-3.45v11.56h3.45a5.59,5.59,0,0,0,2.17-.4,4.63,4.63,0,0,0,1.65-1.13,5.18,5.18,0,0,0,1.05-1.82A7.3,7.3,0,0,0,183.05,178.45Z"/><path class="cls-3" d="M198.09,172.68v5.09h6.1v1.83h-6.1v6.45h-2.26v-15.2h9.42v1.83Z"/><path class="cls-3" d="M213.72,184.24a4.19,4.19,0,0,0,1.63-.31,3.34,3.34,0,0,0,1.22-.86,3.86,3.86,0,0,0,.76-1.33,5,5,0,0,0,.26-1.69v-9.2h2.25v9.2a6.76,6.76,0,0,1-.43,2.46,5.44,5.44,0,0,1-3.14,3.25,6.62,6.62,0,0,1-2.55.47,6.7,6.7,0,0,1-2.55-.47,5.51,5.51,0,0,1-3.14-3.25,7,7,0,0,1-.42-2.46v-9.2h2.25V180a5.43,5.43,0,0,0,.26,1.71,3.77,3.77,0,0,0,.75,1.33,3.42,3.42,0,0,0,1.22.86A4.23,4.23,0,0,0,213.72,184.24Z"/><path class="cls-3" d="M232.1,184.15v1.9h-8.7v-15.2h2.26v13.3Z"/><path class="cls-3" d="M236.57,172.68v5.09h6.09v1.83h-6.09v6.45H234.3v-15.2h9.42v1.83Z"/><path class="cls-3" d="M248.53,186.05h-2.26v-15.2h2.26Z"/><path class="cls-3" d="M261,184.15v1.9h-8.7v-15.2h2.25v13.3Z"/><path class="cls-3" d="M279.16,170.85v15.2h-2V175.23a4.79,4.79,0,0,1,0-.52l0-.56-5.06,9.28a.84.84,0,0,1-.81.52h-.32a.84.84,0,0,1-.8-.52l-5.16-9.31a8.93,8.93,0,0,1,.07,1.11v10.82h-2v-15.2h1.67a1.38,1.38,0,0,1,.46.06.64.64,0,0,1,.31.32l5.08,9.1c.1.18.19.38.28.58l.24.62a10,10,0,0,1,.52-1.21l5-9.09a.6.6,0,0,1,.31-.32,1.34,1.34,0,0,1,.46-.06Z"/><path class="cls-3" d="M292.34,184.22v1.83h-9.42v-15.2h9.42v1.83h-7.15v4.82h5.75v1.76h-5.75v5Z"/><path class="cls-3" d="M307.57,170.85v15.2h-1.14a.92.92,0,0,1-.44-.1,1.24,1.24,0,0,1-.36-.31l-8.58-11.1c0,.19,0,.38,0,.56s0,.36,0,.52v10.43h-2v-15.2h1.17a1,1,0,0,1,.44.07,1,1,0,0,1,.33.31l8.6,11.11c0-.2,0-.4,0-.6s0-.37,0-.54V170.85Z"/><path class="cls-3" d="M321.68,172.73h-4.82v13.32h-2.24V172.73h-4.85v-1.88h11.91Z"/></g></g></svg>