<svg version="1.1"
	 xmlns="http://www.w3.org/2000/svg" xmlns:xlink="http://www.w3.org/1999/xlink" x="0px" y="0px" viewBox="0 0 300 144"
	 style="enable-background:new 0 0 300 144;">
<style type="text/css">
	.st0{fill:#FFFFFF;}
</style>
<switch>
	<g>
		<g>
			<g>
				<path class="st0" d="M103.68,37.63C97.25,34.84,91.94,34,79.08,34h-7.13v98.54h7.13c13.14,0,18.87-0.84,24.6-3.63
					c4.75-2.24,8.81-5.87,11.46-10.2c5.59-8.95,8.67-21.53,8.67-35.36C123.81,60.56,116.12,43.08,103.68,37.63z M102.56,107.38
					c-0.98,2.66-2.66,5.03-4.61,6.57c-2.38,1.68-4.19,2.24-8.8,2.79V49.79c7.41,0.84,11.18,3.5,13.42,9.51
					c2.24,5.87,3.63,14.96,3.63,24.04C106.19,92.29,104.8,101.23,102.56,107.38z"/>
				<polygon class="st0" points="148.81,91.24 166.98,91.24 166.98,75.3 148.81,75.3 148.81,50.07 167.96,50.07 167.96,34 
					131.62,34 131.62,132.54 168.66,132.54 168.66,116.61 148.81,116.61 				"/>
				<path class="st0" d="M211.52,38.21c-6.71-3.63-11.46-4.47-24.46-4.47h-9.23v98.54h17.19v-25.02
					c19.71-1.54,30.61-15.1,30.61-37.74C225.64,54,220.75,43.24,211.52,38.21z M195.03,91.6V49.39c4.61,0.7,6.43,1.54,8.39,3.36
					c3.35,3.07,5.03,8.95,5.03,17.47C208.45,84.47,204.81,90.34,195.03,91.6z"/>
				<polygon class="st0" points="226.96,34 226.96,50.07 238.01,50.07 238.01,132.54 255.34,132.54 255.34,50.07 266.52,50.07 
					266.52,34 				"/>
				<path class="st0" d="M49.54,34H34.96L6,132.54h17.8l2.81-10.2h18.04l-0.11,10.2h0.22h16.97V34h-6.38H49.54z M44.65,110.32H29.93
					l12.66-46.55l2.06,0.01V110.32z"/>
			</g>
			<polygon class="st0" points="292,8.58 259.48,19.83 275.41,25.17 			"/>
			<polygon class="st0" points="292,8.58 280.75,41.1 275.41,25.17 			"/>
		</g>
	</g>
</switch>
</svg>
